<svg width="69" height="95" viewBox="0 0 69 95" fill="none" xmlns="http://www.w3.org/2000/svg">
<path d="M1.73295 95V80.8182L34.8693 50.1364C37.6875 47.4091 40.0511 44.9545 41.9602 42.7727C43.8996 40.5909 45.3693 38.4545 46.3693 36.3636C47.3693 34.2424 47.8693 31.9545 47.8693 29.5C47.8693 26.7727 47.2481 24.4242 46.0057 22.4545C44.7633 20.4545 43.0663 18.9242 40.9148 17.8636C38.7633 16.7727 36.3239 16.2273 33.5966 16.2273C30.7481 16.2273 28.2633 16.803 26.142 17.9545C24.0208 19.1061 22.3845 20.7576 21.233 22.9091C20.0814 25.0606 19.5057 27.6212 19.5057 30.5909H0.823864C0.823864 24.5 2.20265 19.2121 4.96023 14.7273C7.7178 10.2424 11.5814 6.77273 16.5511 4.31818C21.5208 1.86363 27.2481 0.63636 33.733 0.63636C40.3996 0.63636 46.2027 1.81818 51.142 4.18182C56.1117 6.51515 59.9754 9.75757 62.733 13.9091C65.4905 18.0606 66.8693 22.8182 66.8693 28.1818C66.8693 31.697 66.1724 35.1667 64.7784 38.5909C63.4148 42.0152 60.9754 45.8182 57.4602 50C53.9451 54.1515 48.9905 59.1364 42.5966 64.9545L29.0057 78.2727V78.9091H68.0966V95H1.73295Z" fill="black"/>
</svg>
